<svg width="49" height="49" viewBox="0 0 49 49" fill="none" xmlns="http://www.w3.org/2000/svg">
<circle cx="24" cy="25" r="24" fill="#191A26"/>
<path d="M18 15L15 19V33C15 33.5304 15.2107 34.0391 15.5858 34.4142C15.9609 34.7893 16.4696 35 17 35H31C31.5304 35 32.0391 34.7893 32.4142 34.4142C32.7893 34.0391 33 33.5304 33 33V19L30 15H18Z" stroke="white" stroke-width="1.5" stroke-linecap="round" stroke-linejoin="round"/>
<path d="M15 19H33" stroke="white" stroke-width="1.5" stroke-linecap="round" stroke-linejoin="round"/>
<path d="M28 23C28 24.0609 27.5786 25.0783 26.8284 25.8284C26.0783 26.5786 25.0609 27 24 27C22.9391 27 21.9217 26.5786 21.1716 25.8284C20.4214 25.0783 20 24.0609 20 23" stroke="white" stroke-width="1.5" stroke-linecap="round" stroke-linejoin="round"/>
<circle cx="40" cy="9" r="8" fill="#FD451C" stroke="white" stroke-width="1.5"/>
<path d="M37.5436 12V10.91C37.7602 10.7467 38.0169 10.545 38.3136 10.305C38.6102 10.0617 38.9152 9.8 39.2286 9.52C39.5419 9.23667 39.8319 8.95333 40.0986 8.67C40.3652 8.38667 40.5819 8.11667 40.7486 7.86C40.9186 7.60333 41.0036 7.38333 41.0036 7.2C41.0036 6.99667 40.9536 6.81167 40.8536 6.645C40.7536 6.475 40.6202 6.34 40.4536 6.24C40.2902 6.14 40.1069 6.09 39.9036 6.09C39.7002 6.09 39.5152 6.14 39.3486 6.24C39.1819 6.34 39.0486 6.475 38.9486 6.645C38.8486 6.81167 38.7986 6.99667 38.7986 7.2H37.5786C37.5786 6.76 37.6852 6.365 37.8986 6.015C38.1119 5.66167 38.3936 5.38333 38.7436 5.18C39.0969 4.97333 39.4836 4.87 39.9036 4.87C40.3302 4.87 40.7186 4.975 41.0686 5.185C41.4186 5.39167 41.6986 5.67167 41.9086 6.025C42.1186 6.37833 42.2236 6.77 42.2236 7.2C42.2236 7.42667 42.1819 7.655 42.0986 7.885C42.0152 8.115 41.8986 8.34667 41.7486 8.58C41.5986 8.81333 41.4219 9.05 41.2186 9.29C41.0152 9.52667 40.7902 9.77 40.5436 10.02C40.3002 10.2667 40.0436 10.52 39.7736 10.78H42.2586V12H37.5436Z" fill="white"/>
</svg>
