<svg width="16" height="16" viewBox="0 0 16 16" fill="none" xmlns="http://www.w3.org/2000/svg">
<path d="M8 6.66665L7.06666 5.73331L8.11666 4.66665H5.33333V3.33331H8.11666L7.05 2.26665L8 1.33331L10.6667 3.99998L8 6.66665ZM4.66666 14.6666C4.3 14.6666 3.98611 14.5361 3.725 14.275C3.46389 14.0139 3.33333 13.7 3.33333 13.3333C3.33333 12.9666 3.46389 12.6528 3.725 12.3916C3.98611 12.1305 4.3 12 4.66666 12C5.03333 12 5.34722 12.1305 5.60833 12.3916C5.86944 12.6528 6 12.9666 6 13.3333C6 13.7 5.86944 14.0139 5.60833 14.275C5.34722 14.5361 5.03333 14.6666 4.66666 14.6666ZM11.3333 14.6666C10.9667 14.6666 10.6528 14.5361 10.3917 14.275C10.1306 14.0139 10 13.7 10 13.3333C10 12.9666 10.1306 12.6528 10.3917 12.3916C10.6528 12.1305 10.9667 12 11.3333 12C11.7 12 12.0139 12.1305 12.275 12.3916C12.5361 12.6528 12.6667 12.9666 12.6667 13.3333C12.6667 13.7 12.5361 14.0139 12.275 14.275C12.0139 14.5361 11.7 14.6666 11.3333 14.6666ZM0.666664 2.66665V1.33331H2.85L5.68333 7.33331H10.35L12.95 2.66665H14.4667L11.5333 7.96665C11.4111 8.18887 11.2472 8.36109 11.0417 8.48331C10.8361 8.60553 10.6111 8.66665 10.3667 8.66665H5.4L4.66666 9.99998H12.6667V11.3333H4.66666C4.16666 11.3333 3.78611 11.1166 3.525 10.6833C3.26389 10.25 3.25555 9.81109 3.5 9.36665L4.4 7.73331L2 2.66665H0.666664Z" fill="white"/>
</svg>