<svg width="48" height="48" viewBox="0 0 48 48" fill="none" xmlns="http://www.w3.org/2000/svg">
<rect width="48" height="48" rx="24" fill="#F5F5F5"/>
<g clip-path="url(#clip0_242_1466)">
<path fill-rule="evenodd" clip-rule="evenodd" d="M20.6653 30.3772H27.0887V18.6013H20.6653V30.3772Z" fill="#FF5F00"/>
<path fill-rule="evenodd" clip-rule="evenodd" d="M21.0733 24.4892C21.0733 22.1001 22.1698 19.9724 23.8772 18.6012C22.6284 17.5983 21.0529 17 19.3404 17C15.2863 17 12 20.3531 12 24.4892C12 28.6253 15.2863 31.9784 19.3404 31.9784C21.0529 31.9784 22.6284 31.3801 23.8772 30.3772C22.1698 29.0058 21.0733 26.8782 21.0733 24.4892Z" fill="#EB001B"/>
<path fill-rule="evenodd" clip-rule="evenodd" d="M35.5252 29.13V28.8394H35.4508L35.3653 29.0393L35.2797 28.8394H35.2053V29.13H35.2577V28.9107L35.338 29.0998H35.3925L35.4728 28.9103V29.13H35.5252ZM35.054 29.13V28.8889H35.1494V28.8398H34.9067V28.8889H35.002V29.13H35.054ZM35.7544 24.4892C35.7544 28.6253 32.4679 31.9784 28.414 31.9784C26.7015 31.9784 25.1258 31.3801 23.8772 30.3772C25.5846 29.006 26.6811 26.8782 26.6811 24.4892C26.6811 22.1004 25.5846 19.9726 23.8772 18.6012C25.1258 17.5983 26.7015 17 28.414 17C32.4679 17 35.7544 20.3531 35.7544 24.4892Z" fill="#F79E1B"/>
</g>
<defs>
<clipPath id="clip0_242_1466">
<rect width="24" height="15" fill="white" transform="translate(12 17)"/>
</clipPath>
</defs>
</svg>
